<?xml version="1.0" encoding="UTF-8"?>
<svg width="200mm" height="200mm" version="1.1" viewBox="0 0 200 200" xmlns="http://www.w3.org/2000/svg" xmlns:cc="http://creativecommons.org/ns#" xmlns:dc="http://purl.org/dc/elements/1.1/" xmlns:rdf="http://www.w3.org/1999/02/22-rdf-syntax-ns#">
 <metadata>
  <rdf:RDF>
   <cc:Work rdf:about="">
    <dc:format>image/svg+xml</dc:format>
    <dc:type rdf:resource="http://purl.org/dc/dcmitype/StillImage"/>
    <dc:title/>
   </cc:Work>
  </rdf:RDF>
 </metadata>
 <ellipse transform="rotate(14.758)" cx="122.18" cy="71.227" rx="67.067" ry="67.069" fill="none" stroke="#ccc" stroke-linecap="round" stroke-linejoin="round" stroke-width=".63159"/>
 <ellipse transform="rotate(14.758)" cx="122.18" cy="71.227" rx="99.687" ry="99.69" fill="none" stroke="#ccc" stroke-linecap="round" stroke-linejoin="round" stroke-width=".532"/>
 <g transform="rotate(14.758 100 100)">
  <g stroke="#ccc" stroke-width=".63159">
   <ellipse cx="100" cy="100" rx="53.414" ry="53.416" fill="#fff" stroke-linecap="round" stroke-linejoin="round"/>
   <path d="m99.949 99.548-53.362 0.45242" fill="#e2e2e2" stroke-dasharray="0.631594, 1.26318"/>
   <ellipse cx="46.587" cy="100" rx="5.8647" ry="5.8649" fill="#f8f8f8" stroke-linecap="round" stroke-linejoin="round"/>
  </g>
  <ellipse cx="100" cy="100" rx="9.8965" ry="9.8968" fill="#ffe680" stroke="#fea" stroke-linecap="round" stroke-linejoin="round" stroke-width="2.1316"/>
 </g>
 <g transform="translate(-257.6 155.31)" fill="none" stroke="#ccc" stroke-width=".5">
  <g stroke-linecap="round" stroke-linejoin="round">
   <path d="m271.82-104.88c-0.30996 0.10116-0.61325 0.20384-0.91777 0.30644a99.687 99.69 0 0 0-12.992 48.5c0.21241 0.2383 0.42292 0.47648 0.64078 0.71624h31.977a67.067 67.069 0 0 1 8.986-33.534z"/>
   <path d="m306.99-141.25a99.687 99.69 0 0 0-35.297 35.307c0.0413 0.35251 0.081 0.70176 0.12661 1.0609l27.693 15.989a67.067 67.069 0 0 1 24.548-24.548l-15.989-27.695c-0.36152-0.04-0.72122-0.076-1.0816-0.11421z"/>
   <path d="m356.35-155.04a99.687 99.69 0 0 0-47.891 12.946c-0.12789 0.31618-0.25511 0.63462-0.37983 0.95912l15.989 27.695a67.067 67.069 0 0 1 33.532-8.9855v-31.979c-0.41969-0.21982-0.83384-0.42545-1.25-0.63613z"/>
   <path d="m359.32-155.03c-0.56991 0.20376-1.1411 0.41018-1.7182 0.62941v31.979a67.067 67.069 0 0 1 1e-3 0 67.067 67.069 0 0 1 33.532 8.9845l15.988-27.694c-0.19363-0.3661-0.39096-0.72374-0.59015-1.078a99.687 99.69 0 0 0-47.213-12.821z"/>
   <path d="m407.12-141.13-15.988 27.694a67.067 67.069 0 0 1 24.548 24.548l27.692-15.989c0.10002-0.26642 0.1913-0.52619 0.28628-0.78858a99.687 99.69 0 0 0-35.09-35.362c-0.48239-0.0345-0.9641-0.0705-1.4485-0.10335z"/>
   <path d="m443.37-104.88-27.692 15.989a67.067 67.069 0 0 1 8.9865 33.534h31.975c0.21865-0.17661 0.42923-0.35213 0.64285-0.52813a99.687 99.69 0 0 0-12.916-48.552c-0.3302-0.14803-0.66007-0.29604-0.9958-0.44339z"/>
   <path d="m424.66-55.357a67.067 67.069 0 0 1 0 0.0021 67.067 67.069 0 0 1-8.985 33.533l27.691 15.988c0.34555-0.16356 0.68411-0.33074 1.0253-0.49661a99.687 99.69 0 0 0 12.882-48.012c-0.20987-0.33651-0.41998-0.67327-0.63872-1.0144z"/>
   <path d="m415.68-21.822a67.067 67.069 0 0 1-24.548 24.55l15.987 27.691c0.39321 0.024 0.78175 0.04396 1.1689 0.06356a99.687 99.69 0 0 0 35.316-35.436c-0.0758-0.29291-0.15131-0.58505-0.23203-0.8816z"/>
   <path d="m391.13 2.7279a67.067 67.069 0 0 1-33.533 8.986 67.067 67.069 0 0 1-1e-3 0v31.975c0.37896 0.21824 0.75414 0.4293 1.1276 0.63768a99.687 99.69 0 0 0 47.901-12.884c0.16465-0.34018 0.33034-0.67764 0.49196-1.0232z"/>
   <path d="m324.06 2.7274-15.987 27.692c0.15946 0.34302 0.32006 0.68109 0.48163 1.0165a99.687 99.69 0 0 0 48.141 12.893c0.2986-0.21001 0.59787-0.42237 0.89865-0.64027v-31.975a67.067 67.069 0 0 1-33.534-8.9865z"/>
   <path d="m299.52-21.823-27.692 15.989c-0.0828 0.29395-0.15946 0.58328-0.23719 0.87333a99.687 99.69 0 0 0 35.304 35.434c0.39265-0.0161 0.78673-0.03334 1.1849-0.05375l15.987-27.692a67.067 67.069 0 0 1-24.547-24.55z"/>
  </g>
  <path d="m258.55-55.357c-0.21328 0.37176-0.42449 0.74343-0.63769 1.1152a99.687 99.69 0 0 0 12.922 47.982c0.32648 0.14201 0.64983 0.28445 0.98495 0.42581l27.692-15.989a67.067 67.069 0 0 1-8.9845-33.532 67.067 67.069 0 0 1 0-0.0021z" stroke-linecap="square"/>
 </g>
</svg>
